<svg id="Calendar" xmlns="http://www.w3.org/2000/svg" width="24" height="24" viewBox="0 0 24 24">
  <rect id="Rectangle_24354" data-name="Rectangle 24354" width="24" height="24" fill="#fff"/>
  <g id="Iconly_Light-Outline_Calendar" data-name="Iconly/Light-Outline/Calendar" transform="translate(2.924 3.198)" opacity="0.6">
    <g id="Calendar-2" data-name="Calendar" transform="translate(2 1)">
      <path id="Combined-Shape" d="M10.011,0a.545.545,0,0,1,.544.544V1.16a3.906,3.906,0,0,1,2.563,1.06,3.9,3.9,0,0,1,1.034,2.843v6.621A3.678,3.678,0,0,1,10.145,15.6H4.007A3.7,3.7,0,0,1,0,11.628V5.061a3.627,3.627,0,0,1,3.6-3.9V.544a.544.544,0,1,1,1.089,0v.6H9.466v-.6A.545.545,0,0,1,10.011,0Zm3.053,6.462H1.089v5.166a2.618,2.618,0,0,0,2.918,2.887h6.138a2.594,2.594,0,0,0,2.918-2.832Zm-2.757,4.567a.544.544,0,1,1-.007,0Zm-3.221,0a.544.544,0,1,1-.007,0Zm-3.227,0a.545.545,0,1,1-.007,0Zm6.448-2.821a.544.544,0,1,1-.007,0Zm-3.221,0a.544.544,0,1,1-.007,0Zm-3.227,0a.545.545,0,1,1-.007,0ZM9.466,2.235H4.692v.7a.544.544,0,0,1-1.089,0V2.251a2.531,2.531,0,0,0-2.515,2.81v.313H13.064V5.061a2.8,2.8,0,0,0-.716-2.072,2.8,2.8,0,0,0-1.792-.737v.681a.544.544,0,0,1-1.089,0Z" transform="translate(0 0)" fill-rule="evenodd"/>
    </g>
  </g>
</svg>
