<svg id="Cart_icon" data-name="Cart icon" xmlns="http://www.w3.org/2000/svg" width="24" height="24" viewBox="0 0 24 24">
  <g id="Rectangle_24115" data-name="Rectangle 24115" stroke="#f5f5f5" stroke-width="1" opacity="0">
    <rect width="24" height="24" stroke="none"/>
    <rect x="0.5" y="0.5" width="23" height="23" fill="none"/>
  </g>
  <g id="Iconly_Light-Outline_Buy" data-name="Iconly/Light-Outline/Buy" transform="translate(1.273 0.855)">
    <g id="Buy" transform="translate(2.39 3)">
      <path id="Combined-Shape" d="M4.686,14.132A1.079,1.079,0,1,1,3.607,15.21,1.08,1.08,0,0,1,4.686,14.132Zm9.4,0a1.079,1.079,0,1,1-1.079,1.079A1.08,1.08,0,0,1,14.09,14.132ZM1.122.008l1.734.3a.628.628,0,0,1,.516.564l.2,2.335h12A1.744,1.744,0,0,1,17.044,5.2l-.791,5.467a2.136,2.136,0,0,1-2.1,1.825h-9.1a2.135,2.135,0,0,1-2.117-1.953L2.165,1.458.909,1.241A.627.627,0,0,1,.4.517.633.633,0,0,1,1.122.008Zm3.007,4.45H3.673l.5,5.979a.869.869,0,0,0,.872.805h9.1a.88.88,0,0,0,.867-.753l.792-5.468a.489.489,0,0,0-.093-.365.484.484,0,0,0-.323-.193H4.129Zm8.68,1.831a.625.625,0,0,1,0,1.25H10.5a.625.625,0,1,1,0-1.25Z" transform="translate(-0.39 0)" fill-rule="evenodd"/>
    </g>
  </g>
</svg>
