<svg id="Group_150809" data-name="Group 150809" xmlns="http://www.w3.org/2000/svg" width="64.437" height="64" viewBox="0 0 64.437 64">
  <rect id="Rectangle_24363" data-name="Rectangle 24363" width="64" height="64" fill="none"/>
  <path id="Path_220155" data-name="Path 220155" d="M66.473,58.441a4.137,4.137,0,0,0-5.391-2.288L58.2,57.315l-3.124-7.73a10.121,10.121,0,0,0,3.69-14.735L49.76,17.089a1.035,1.035,0,0,0-1.312-.492L35.012,22.027a1.037,1.037,0,0,0-.6,1.265L40.27,42.326a10.157,10.157,0,0,0,12.893,8.038l3.121,7.727L53.4,59.255a4.146,4.146,0,0,0-2.288,5.391,1.04,1.04,0,0,0,.96.647,1.057,1.057,0,0,0,.388-.075L65.9,59.788a1.039,1.039,0,0,0,.572-1.348ZM48.345,18.874l6.6,13.022a5.184,5.184,0,0,1-3.162,1.9,5.316,5.316,0,0,1-2.8-.637,9.08,9.08,0,0,0-9.195.562L36.671,23.589Zm-.725,29.4a8.258,8.258,0,0,1-5.328-6.392.778.778,0,0,0-.028-.111l-1.85-6.012a7.894,7.894,0,0,1,4.436-1.581h.057a7.929,7.929,0,0,1,3.281.862,7.155,7.155,0,0,0,3.846.818,6.852,6.852,0,0,0,3.9-2.016l1.012,2c.018.034.036.067.057.1A8.164,8.164,0,0,1,47.62,48.275ZM52.9,62.806a2.067,2.067,0,0,1,1.276-1.63l7.676-3.1a2.063,2.063,0,0,1,2.052.287ZM33.811,17.886,20.375,12.457a1.034,1.034,0,0,0-1.312.492L10.055,30.711a10.116,10.116,0,0,0,3.69,14.732l-3.124,7.73L7.744,52.012A4.137,4.137,0,0,0,2.353,54.3a1.037,1.037,0,0,0,.572,1.348l13.436,5.429a1.057,1.057,0,0,0,.388.075,1.04,1.04,0,0,0,.96-.647,4.149,4.149,0,0,0-2.288-5.391l-2.88-1.165,3.121-7.727a10.23,10.23,0,0,0,2.9.417,10.09,10.09,0,0,0,9.995-8.457l5.859-19.032a1.037,1.037,0,0,0-.6-1.265ZM15.919,58.666l-11-4.446a2.1,2.1,0,0,1,2.052-.287l7.676,3.1a2.07,2.07,0,0,1,1.276,1.633ZM26.529,37.743a8.071,8.071,0,0,1-11.074,6.224A8.065,8.065,0,0,1,11.815,31.8a.636.636,0,0,0,.057-.1l1.012-2a6.859,6.859,0,0,0,3.905,2.016,7.149,7.149,0,0,0,3.846-.779,8.422,8.422,0,0,1,3.338-.823A8,8,0,0,1,28.4,31.654l-1.84,5.978c-.008.036-.018.072-.026.111Zm2.5-8.141a9.774,9.774,0,0,0-5.036-1.555,10.165,10.165,0,0,0-4.156.983,5.313,5.313,0,0,1-2.8.634,5.17,5.17,0,0,1-3.162-1.907l6.6-13.025,11.674,4.718Zm-.2-20.837a1.036,1.036,0,1,1,1.853-.926l2.07,4.141a1.035,1.035,0,0,1-.463,1.39,1.022,1.022,0,0,1-.463.109A1.034,1.034,0,0,1,30.9,12.9Zm8.281,3.214,2.07-4.141a1.036,1.036,0,0,1,1.853.926L38.961,12.9a1.036,1.036,0,1,1-1.853-.926Zm-3.214-.572V4.16a1.035,1.035,0,1,1,2.07,0v7.246a1.035,1.035,0,1,1-2.07,0Z" transform="translate(-2.11 -2.078)"/>
</svg>
