<svg id="Group_150810" data-name="Group 150810" xmlns="http://www.w3.org/2000/svg" width="64" height="64" viewBox="0 0 64 64">
  <rect id="Rectangle_24363" data-name="Rectangle 24363" width="64" height="64" fill="none"/>
  <g id="Path_220168" data-name="Path 220168" transform="translate(-4.996 -1.93)">
    <path d="M 37.00922393798828 65.31626892089844 C 36.92172241210938 65.31626892089844 36.8414306640625 65.30480194091797 36.73978424072266 65.290283203125 L 36.70396041870117 65.28520202636719 C 27.90161323547363 63.46673202514648 11.47970294952393 52.49971389770508 11.47970294952393 34.23368072509766 L 11.47970294952393 4.626451969146729 C 11.47970294952393 4.122941970825195 11.73788261413574 3.649742126464844 12.15349292755127 3.391502141952515 L 12.156982421875 3.389332056045532 L 12.16043281555176 3.387082099914551 C 12.3990421295166 3.231472015380859 12.67505264282227 3.149222135543823 12.95862293243408 3.149222135543823 C 13.17228221893311 3.149222135543823 13.38057231903076 3.194662094116211 13.57771301269531 3.284262180328369 C 21.31540298461914 6.851891994476318 29.20052337646484 8.661262512207031 37.01221084594727 8.661262512207031 C 44.82390213012695 8.661262512207031 52.7088623046875 6.851891994476318 60.44806289672852 3.283412218093872 C 60.63556289672852 3.199442148208618 60.83981323242188 3.156012058258057 61.05141067504883 3.156012058258057 C 61.33928298950195 3.156012058258057 61.62248229980469 3.237442016601562 61.87041091918945 3.391502141952515 L 61.92263412475586 3.423949480056763 C 62.31445693969727 3.690736293792725 62.54654312133789 4.135796546936035 62.54654312133789 4.626441955566406 L 62.53873443603516 34.23357391357422 C 62.53873443603516 52.50752258300781 46.10271072387695 63.47612380981445 37.30312347412109 65.28754425048828 L 37.29026412963867 65.29019165039062 L 37.27762222290039 65.29373168945312 C 37.20053100585938 65.31531524658203 37.13611221313477 65.31626892089844 37.00922393798828 65.31626892089844 Z M 14.43552303314209 6.897102355957031 L 14.43552303314209 7.457612037658691 L 14.43552303314209 34.23368072509766 C 14.43552303314209 43.21319198608398 18.9536018371582 49.74369049072266 22.74379348754883 53.64089202880859 C 27.71807289123535 58.75561141967773 33.49421310424805 61.51118087768555 36.92912292480469 62.3167839050293 L 37.01468276977539 62.33685302734375 L 37.10024261474609 62.31682205200195 C 40.53485107421875 61.5126838684082 46.31085205078125 58.75861358642578 51.28572082519531 53.6433219909668 C 55.02294540405273 49.80061340332031 59.46783828735352 43.39711380004883 59.59136199951172 34.60868072509766 L 59.593994140625 34.60868072509766 L 59.59666442871094 34.23368072509766 L 59.59666442871094 7.457612037658691 L 59.59666442871094 6.897831916809082 L 59.07898330688477 7.110812187194824 C 51.77169418334961 10.11723232269287 44.3422737121582 11.64160251617432 36.99706268310547 11.64160251617432 C 29.65216255187988 11.64160251617432 22.23567199707031 10.11728191375732 14.95362281799316 7.110991954803467 L 14.43552303314209 6.897102355957031 Z M 37.04290390014648 57.61362075805664 C 36.88510131835938 57.61362075805664 36.72652435302734 57.58423233032227 36.55808258056641 57.52377319335938 C 29.7720832824707 55.17724227905273 18.98603248596191 46.80437088012695 18.91416168212891 34.32001113891602 L 18.9141731262207 34.30395126342773 L 18.9141731262207 34.22409820556641 C 18.91638374328613 34.21665954589844 18.91997909545898 34.20569610595703 18.92280197143555 34.19707107543945 C 18.93930244445801 34.14677810668945 18.96340560913086 34.07331466674805 18.9680290222168 33.98119735717773 C 18.97187042236328 33.95173645019531 18.97506523132324 33.92215728759766 18.97822189331055 33.89248275756836 C 18.98644256591797 33.81509399414062 18.99293327331543 33.75396347045898 19.01242256164551 33.70756149291992 C 19.0477123260498 33.62354278564453 19.09926223754883 33.54488372802734 19.15896224975586 33.45381164550781 L 19.18389320373535 33.41569137573242 L 19.19553184509277 33.39782333374023 L 19.20506286621094 33.37876129150391 C 19.22708320617676 33.33472442626953 19.24785804748535 33.29414367675781 19.27079391479492 33.25738143920898 L 19.32373237609863 33.19416046142578 C 19.37016296386719 33.13870239257812 19.44956207275391 33.08759307861328 19.53362274169922 33.03349304199219 L 19.56649398803711 33.01225280761719 C 19.61772346496582 32.98169708251953 19.66135406494141 32.94951629638672 19.6967716217041 32.92340087890625 C 19.72079277038574 32.90568161010742 19.75370216369629 32.88142395019531 19.76609230041504 32.87591171264648 C 19.81553268432617 32.85669326782227 19.88946342468262 32.84260177612305 19.96096229553223 32.82898330688477 L 19.98891258239746 32.82361221313477 C 20.05137062072754 32.81415557861328 20.11019515991211 32.80016708374023 20.16717338562012 32.78661346435547 C 20.22757339477539 32.77224349975586 20.2960319519043 32.75596237182617 20.33206176757812 32.75596237182617 L 20.37289619445801 32.75596237182617 C 20.38033485412598 32.75817108154297 20.39128684997559 32.76176452636719 20.39990234375 32.76459121704102 C 20.4502067565918 32.78110504150391 20.52367973327637 32.80521392822266 20.61583709716797 32.80983352661133 C 20.6452808380127 32.81367111206055 20.67482948303223 32.81686401367188 20.70448303222656 32.82001113891602 C 20.78188323974609 32.82823181152344 20.8430233001709 32.83472061157227 20.88943290710449 32.85421371459961 C 20.97345161437988 32.88949203491211 21.05209350585938 32.94104385375977 21.14314270019531 33.0007209777832 L 21.18130302429199 33.02568054199219 L 21.19917297363281 33.03732299804688 L 21.21823310852051 33.04685211181641 C 21.27532958984375 33.07540130615234 21.32662200927734 33.10186386108398 21.37131500244141 33.13365173339844 C 26.60333251953125 37.77409744262695 31.87186431884766 40.12723159790039 37.03025436401367 40.12723159790039 C 42.18894577026367 40.12723159790039 47.4572868347168 37.77427291870117 52.68962097167969 33.13326263427734 C 52.69948959350586 33.12701416015625 52.7176399230957 33.11793899536133 52.73528289794922 33.10912322998047 C 52.77573013305664 33.08891677856445 52.83021545410156 33.06169509887695 52.88834762573242 33.01970291137695 L 52.91718292236328 33.0008430480957 C 53.00091552734375 32.94595336914062 53.07415008544922 32.8979377746582 53.15070724487305 32.86312103271484 C 53.23561477661133 32.84125137329102 53.33990478515625 32.82686233520508 53.44101333618164 32.81292343139648 L 53.48377227783203 32.80699157714844 L 53.50346374511719 32.80423355102539 L 53.52275085449219 32.79941177368164 C 53.5525016784668 32.79197311401367 53.58234405517578 32.78262329101562 53.61283111572266 32.77274322509766 C 53.63383102416992 32.76593399047852 53.66259384155273 32.75661087036133 53.67179107666016 32.75594329833984 L 53.69391250610352 32.75595092773438 C 53.78720092773438 32.7726936340332 53.90536117553711 32.8006591796875 54.03066253662109 32.83574295043945 L 54.21598434448242 32.88763046264648 L 54.27852630615234 32.83754348754883 C 54.29193115234375 32.84118270874023 54.30478668212891 32.84506607055664 54.31727981567383 32.84928512573242 C 54.3286018371582 32.85750198364258 54.34766006469727 32.87227630615234 54.36251068115234 32.88378143310547 C 54.40005874633789 32.91289520263672 54.44549179077148 32.9481086730957 54.49987411499023 32.98215866088867 C 54.54966735839844 33.0217399597168 54.59765625 33.05379867553711 54.64069366455078 33.08256149291992 C 54.67732238769531 33.10702896118164 54.71046829223633 33.12917327880859 54.73509979248047 33.1497688293457 C 54.75642013549805 33.18452072143555 54.78276062011719 33.21587753295898 54.81309509277344 33.24282836914062 C 54.81488800048828 33.24639129638672 54.81669616699219 33.25000762939453 54.8184928894043 33.25360107421875 C 54.83868789672852 33.29400253295898 54.86588668823242 33.34843826293945 54.9078254699707 33.40652084350586 L 54.92687225341797 33.43564224243164 C 54.98181533813477 33.51945877075195 55.02985000610352 33.59275054931641 55.06466674804688 33.66939544677734 C 55.09011459350586 33.76595687866211 55.10496520996094 33.87201690673828 55.12061309814453 33.98383331298828 L 55.12199401855469 33.99368286132812 L 55.12389373779297 34.00344085693359 C 55.13235092163086 34.04695129394531 55.14270401000977 34.08639144897461 55.1518440246582 34.12119293212891 C 55.16007232666016 34.15253067016602 55.17134094238281 34.19545364379883 55.1716423034668 34.21042251586914 L 55.1716423034668 34.30395126342773 L 55.1716423034668 34.32217025756836 C 55.10003280639648 46.80429077148438 44.31386184692383 55.17719268798828 37.5318717956543 57.52231216430664 L 37.52852249145508 57.52347183227539 L 37.52519226074219 57.52469253540039 C 37.3621826171875 57.58453369140625 37.20443344116211 57.61362075805664 37.04290390014648 57.61362075805664 Z M 22.13396263122559 37.57051086425781 L 22.36449241638184 38.53827285766602 C 24.2322826385498 46.37940216064453 31.19755172729492 52.33451080322266 36.87874221801758 54.54932022094727 L 37.01568222045898 54.60270309448242 L 37.15242385864258 54.54882049560547 C 41.53791427612305 52.82084274291992 49.52968215942383 47.50423049926758 51.66541290283203 38.53827285766602 L 51.89658355712891 37.56782150268555 L 51.08340072631836 38.14569091796875 C 46.41490173339844 41.46326065063477 41.68159103393555 43.14541244506836 37.01495361328125 43.14541244506836 C 32.36643218994141 43.14541244506836 27.63293266296387 41.46313095092773 22.94594192504883 38.14530181884766 L 22.13396263122559 37.57051086425781 Z M 51.81537246704102 26.45551300048828 C 51.00199127197266 26.45551300048828 50.34025192260742 25.79378128051758 50.34025192260742 24.98040199279785 C 50.34025192260742 22.7332820892334 48.51209259033203 20.90511131286621 46.26497268676758 20.90511131286621 C 44.01785278320312 20.90511131286621 42.18968200683594 22.7332820892334 42.18968200683594 24.98040199279785 C 42.18968200683594 25.79378128051758 41.5279541015625 26.45551300048828 40.71458435058594 26.45551300048828 C 39.91212463378906 26.45551300048828 39.25727081298828 25.8113899230957 39.23983001708984 25.01304054260254 L 39.23986434936523 24.98040199279785 C 39.23986434936523 21.10663223266602 42.39140319824219 17.95509147644043 46.26516342163086 17.95509147644043 C 50.13892364501953 17.95509147644043 53.29046249389648 21.10663223266602 53.29046249389648 24.98040199279785 C 53.29046249389648 25.79378128051758 52.62874221801758 26.45551300048828 51.81537246704102 26.45551300048828 Z M 33.31160354614258 26.45551300048828 C 32.49823379516602 26.45551300048828 31.83650207519531 25.79378128051758 31.83650207519531 24.98040199279785 C 31.83650207519531 22.7332820892334 30.00833320617676 20.90511131286621 27.7612133026123 20.90511131286621 C 25.51409339904785 20.90511131286621 23.68593215942383 22.7332820892334 23.68593215942383 24.98040199279785 C 23.68593215942383 25.79378128051758 23.02420234680176 26.45551300048828 22.21082305908203 26.45551300048828 C 21.4084644317627 26.45551300048828 20.75367546081543 25.81165504455566 20.7360782623291 25.01344108581543 L 20.73611259460449 24.98040199279785 C 20.73611259460449 21.10663223266602 23.88765335083008 17.95509147644043 27.76141166687012 17.95509147644043 C 31.63518333435059 17.95509147644043 34.78672409057617 21.10663223266602 34.78672409057617 24.98040199279785 C 34.78672409057617 25.79378128051758 34.12498092651367 26.45551300048828 33.31160354614258 26.45551300048828 Z" stroke="none"/>
    <path d="M 12.95861434936523 3.524215698242188 C 12.74797439575195 3.524215698242188 12.54280090332031 3.585411071777344 12.36528396606445 3.701179504394531 L 12.35141372680664 3.710014343261719 C 12.0450325012207 3.900382995605469 11.85470199584961 4.251541137695312 11.85470199584961 4.626453399658203 L 11.85470199584961 34.23368072509766 C 11.85470199584961 44.27428436279297 16.86464309692383 51.43170166015625 21.06745147705078 55.66798400878906 C 23.46869277954102 58.08834075927734 26.30304336547852 60.25071334838867 29.26408386230469 61.92133331298828 C 31.86372756958008 63.38805389404297 34.52778625488281 64.45091247558594 36.76846313476562 64.91559600830078 L 36.79301071166992 64.91908264160156 C 36.88661193847656 64.93244171142578 36.94844436645508 64.94126892089844 37.00922393798828 64.94126892089844 C 37.10820388793945 64.94126892089844 37.14827346801758 64.94052124023438 37.176513671875 64.93262481689453 L 37.22751235961914 64.92024230957031 C 39.47287368774414 64.45803070068359 42.14595031738281 63.39299011230469 44.75436401367188 61.92133331298828 C 47.71540069580078 60.25071334838867 50.54974365234375 58.08833312988281 52.95098114013672 55.66798400878906 C 57.15380096435547 51.43170166015625 62.16373443603516 44.27427291870117 62.16373443603516 34.23347091674805 L 62.17154312133789 4.626441955566406 C 62.17154312133789 4.263481140136719 62.00261688232422 3.935043334960938 61.71715927124023 3.737762451171875 L 61.67251205444336 3.71002197265625 C 61.48404312133789 3.592918395996094 61.26924133300781 3.531021118164062 61.05134201049805 3.531013488769531 C 60.89430618286133 3.531013488769531 60.74289703369141 3.562873840332031 60.60125350952148 3.625724792480469 C 52.81383514404297 7.215755462646484 44.87705230712891 9.036262512207031 37.01221084594727 9.036262512207031 C 29.14592361450195 9.036262512207031 21.20797348022461 7.215301513671875 13.42253112792969 3.625648498535156 C 13.27445220947266 3.558341979980469 13.11836242675781 3.524215698242188 12.95861434936523 3.524215698242188 M 36.99707412719727 11.2666015625 C 44.2930908203125 11.2666015625 51.67451477050781 9.751712799072266 58.93629455566406 6.764011383056641 L 59.97165298461914 6.338031768798828 L 59.97165298461914 34.23368072509766 L 59.968994140625 34.98368072509766 L 59.95860290527344 34.98368072509766 C 59.71651458740234 43.70522308349609 55.28704833984375 50.06690979003906 51.55455017089844 53.90476989746094 C 46.52322387695312 59.07812118530273 40.66963195800781 61.86626052856445 37.18572235107422 62.68194198608398 L 37.01460266113281 62.72201156616211 L 36.84350204467773 62.68188095092773 C 33.35934066772461 61.86473083496094 27.50567245483398 59.07508087158203 22.4749641418457 53.90234375 C 18.63632202148438 49.95534133911133 14.06051254272461 43.33905029296875 14.06051254272461 34.23368072509766 L 14.06051254272461 6.336570739746094 L 15.09671401977539 6.764350891113281 C 22.33317184448242 9.7518310546875 29.70151138305664 11.2666015625 36.99707412719727 11.2666015625 M 27.76141357421875 18.33009338378906 C 24.09442138671875 18.33009338378906 21.11110305786133 21.31341171264648 21.11110305786133 24.98040390014648 L 21.11108779907227 25.00931930541992 C 21.12646484375 25.60261535644531 21.61388397216797 26.08050155639648 22.21082305908203 26.08050155639648 C 22.81742095947266 26.08050155639648 23.31093215942383 25.58700180053711 23.31093215942383 24.98040390014648 C 23.31093215942383 22.5265007019043 25.30732345581055 20.53011322021484 27.76121139526367 20.53011322021484 C 30.21511077880859 20.53011322021484 32.21150207519531 22.5265007019043 32.21150207519531 24.98040390014648 C 32.21150207519531 25.58700180053711 32.70500183105469 26.08050155639648 33.31160354614258 26.08050155639648 C 33.918212890625 26.08050155639648 34.41172409057617 25.58700180053711 34.41172409057617 24.98040390014648 C 34.41172409057617 21.31341171264648 31.42840194702148 18.33009338378906 27.76141357421875 18.33009338378906 M 46.26516342163086 18.33009338378906 C 42.59817504882812 18.33009338378906 39.61486434936523 21.31341171264648 39.61486434936523 24.98040390014648 L 39.61484909057617 25.00932693481445 C 39.63022613525391 25.60261917114258 40.11764526367188 26.08050155639648 40.71458435058594 26.08050155639648 C 41.32118225097656 26.08050155639648 41.81468200683594 25.58700180053711 41.81468200683594 24.98040390014648 C 41.81468200683594 22.5265007019043 43.81107330322266 20.53011322021484 46.26497268676758 20.53011322021484 C 48.71886444091797 20.53011322021484 50.71525192260742 22.5265007019043 50.71525192260742 24.98040390014648 C 50.71525192260742 25.58700180053711 51.20876312255859 26.08050155639648 51.81537246704102 26.08050155639648 C 52.42196273803711 26.08050155639648 52.91546249389648 25.58700180053711 52.91546249389648 24.98040390014648 C 52.91546249389648 21.31341171264648 49.93215179443359 18.33009338378906 46.26516342163086 18.33009338378906 M 20.32637405395508 33.13481140136719 C 20.30441284179688 33.13943099975586 20.2755012512207 33.14630889892578 20.25395202636719 33.15143203735352 C 20.19436645507812 33.16560745239258 20.12748336791992 33.18151092529297 20.05269622802734 33.19321441650391 L 20.03116226196289 33.19735336303711 C 20.00032806396484 33.20322799682617 19.95818328857422 33.21125793457031 19.92876434326172 33.21818923950195 C 19.92563247680664 33.22053146362305 19.92249298095703 33.22288513183594 19.9193229675293 33.22522354125977 C 19.88057708740234 33.2537956237793 19.82867813110352 33.29207229614258 19.7645149230957 33.33076858520508 L 19.7365837097168 33.34882354736328 C 19.69293212890625 33.37691116333008 19.62697219848633 33.41937255859375 19.61124420166016 33.43491363525391 L 19.57771682739258 33.47495269775391 C 19.56585693359375 33.49602508544922 19.55300521850586 33.52139663696289 19.54047393798828 33.54646301269531 L 19.52140426635742 33.58460235595703 L 19.47259140014648 33.65938186645508 C 19.42578506469727 33.73078918457031 19.38501358032227 33.79300308227539 19.36207962036133 33.84380340576172 C 19.35854339599609 33.86226272583008 19.35430526733398 33.90215682983398 19.35112380981445 33.93209075927734 C 19.34814834594727 33.96012496948242 19.34510040283203 33.98807144165039 19.34162902832031 34.01593780517578 C 19.33411026000977 34.12960052490234 19.30867004394531 34.22129440307617 19.2891731262207 34.28293228149414 L 19.28916168212891 34.31785202026367 C 19.32861328125 41.17098236083984 22.67903137207031 46.32925415039062 25.48274230957031 49.44972991943359 C 27.14082336425781 51.29514312744141 29.04791259765625 52.9423828125 31.15103149414062 54.34567260742188 C 33.00624084472656 55.58355331420898 34.91692352294922 56.55946350097656 36.67649078369141 57.16790008544922 L 36.68474197387695 57.17081069946289 C 36.94211196899414 57.26317596435547 37.15705871582031 57.26034927368164 37.39599227905273 57.17265319824219 L 37.40932083129883 57.16790008544922 C 39.16890335083008 56.55946350097656 41.07959365844727 55.58355331420898 42.93482208251953 54.34567260742188 C 45.03797149658203 52.9423713684082 46.94508361816406 51.29514312744141 48.60317230224609 49.44972229003906 C 51.40691375732422 46.32924270629883 54.75734329223633 41.17097473144531 54.7966423034668 34.32217025756836 L 54.7966423034668 34.24467468261719 C 54.79426574707031 34.23528289794922 54.7916259765625 34.22590637207031 54.78914260864258 34.21647262573242 C 54.77908325195312 34.17813110351562 54.76655197143555 34.13042068481445 54.75577163696289 34.0749626159668 L 54.74921417236328 34.03565216064453 C 54.73663330078125 33.94579315185547 54.72542572021484 33.86578369140625 54.71006011962891 33.79777145385742 C 54.68629455566406 33.75266265869141 54.65180969238281 33.70005798339844 54.61324310302734 33.64121246337891 L 54.59826278686523 33.61830520629883 C 54.55747222900391 33.56080627441406 54.52730560302734 33.50718307495117 54.50523376464844 33.46490859985352 C 54.49067687988281 33.4489631652832 54.47679138183594 33.43244171142578 54.46356964111328 33.41534042358398 C 54.45321273803711 33.40829467773438 54.44202423095703 33.40082168579102 54.43238067626953 33.39438247680664 C 54.39333343505859 33.3682861328125 54.34749603271484 33.33766555786133 54.29773330688477 33.29994201660156 L 53.92955017089844 33.19685363769531 C 53.84590148925781 33.17343139648438 53.76679992675781 33.15367889404297 53.69853210449219 33.13906097412109 C 53.67439270019531 33.14665603637695 53.64573669433594 33.15520477294922 53.61372375488281 33.16321182250977 L 53.57514190673828 33.1728630065918 L 53.49225234985352 33.18440246582031 C 53.41957092285156 33.19442367553711 53.33927154541016 33.20550155639648 53.27764892578125 33.21851348876953 C 53.23290634155273 33.24225997924805 53.18087768554688 33.2763671875 53.12277221679688 33.31446075439453 L 53.09996032714844 33.32938385009766 C 53.02124786376953 33.38521194458008 52.94980621337891 33.421142578125 52.90478897094727 33.44363403320312 C 47.61291885375977 38.12734222412109 42.27213287353516 40.50223159790039 37.03024291992188 40.50223159790039 C 31.78353118896484 40.50223159790039 26.43785858154297 38.12306976318359 21.14123153686523 33.43081665039062 C 21.11763000488281 33.41610717773438 21.08380508422852 33.39890289306641 21.05053329467773 33.38226318359375 L 21.01239395141602 33.36319351196289 L 20.93761444091797 33.31438064575195 C 20.86620712280273 33.267578125 20.80398559570312 33.22679901123047 20.7531852722168 33.20386505126953 C 20.73471450805664 33.2003288269043 20.69481658935547 33.19609451293945 20.66489410400391 33.19291305541992 C 20.63687133789062 33.18994140625 20.60893249511719 33.1869010925293 20.58107757568359 33.18342971801758 C 20.47474670410156 33.17639923095703 20.38764572143555 33.15368270874023 20.32637405395508 33.13481140136719 M 37.01641082763672 55.0054817199707 L 36.74253082275391 54.89871215820312 C 32.29339218139648 53.16421127319336 24.18158340454102 47.78487396240234 21.99969100952148 38.62516021728516 L 21.53865432739258 36.68965148925781 L 23.16261291503906 37.8392219543457 C 27.78499221801758 41.11132049560547 32.44559097290039 42.77041244506836 37.01495361328125 42.77041244506836 C 41.6021842956543 42.77041244506836 46.26241302490234 41.11159133911133 50.86617279052734 37.84001159667969 L 52.49253082275391 36.68427276611328 L 52.03021240234375 38.62516021728516 C 49.85869216918945 47.74134063720703 41.74298095703125 53.14310073852539 37.28989410400391 54.89772033691406 L 37.01641082763672 55.0054817199707 M 12.9586181640625 2.774215698242188 C 13.22228622436523 2.774215698242188 13.48630142211914 2.830787658691406 13.73288345336914 2.94287109375 C 29.18498229980469 10.06739044189453 44.83960342407227 10.06739044189453 60.29103088378906 2.94287109375 C 60.86611938476562 2.68524169921875 61.53228378295898 2.739898681640625 62.06833267211914 3.072975158691406 L 62.07067108154297 3.072975158691406 C 62.60668182373047 3.406051635742188 62.92154312133789 3.996719360351562 62.92154312133789 4.626441955566406 L 62.91373443603516 34.23367309570312 C 62.91373443603516 52.73744201660156 46.27788162231445 63.82292175292969 37.37873077392578 65.65483856201172 C 37.24862289428711 65.69126892089844 37.13933181762695 65.69126892089844 37.00922393798828 65.69126892089844 C 36.87911224365234 65.69126892089844 36.76982116699219 65.67304992675781 36.63971328735352 65.65483856201172 C 27.74056243896484 63.82292175292969 11.10470199584961 52.73745346069336 11.10470199584961 34.23368072509766 L 11.10470199584961 4.626453399658203 C 11.10470199584961 3.99932861328125 11.41953277587891 3.406051635742188 11.95558166503906 3.072975158691406 C 12.26222229003906 2.872993469238281 12.61013412475586 2.774215698242188 12.9586181640625 2.774215698242188 Z M 36.99707412719727 12.0166015625 C 29.5888557434082 12.0166015625 22.1779670715332 10.49915313720703 14.81051254272461 7.457603454589844 L 14.81051254272461 34.23368072509766 C 14.81051254272461 50.14544296264648 29.2813835144043 60.13796234130859 37.01475143432617 61.95169067382812 C 44.74814224243164 60.14109039306641 59.218994140625 50.14877319335938 59.218994140625 34.23368072509766 L 59.22165298461914 34.23368072509766 L 59.22165298461914 7.457603454589844 C 51.83979797363281 10.49470138549805 44.41977691650391 12.0166015625 36.99707412719727 12.0166015625 Z M 27.76141357421875 17.58009338378906 C 31.85199356079102 17.58009338378906 35.16172409057617 20.89267349243164 35.16172409057617 24.98040390014648 C 35.16172409057617 25.99782180786133 34.32902145385742 26.83050155639648 33.31160354614258 26.83050155639648 C 32.29419326782227 26.83050155639648 31.46150207519531 25.99781036376953 31.46150207519531 24.98040390014648 C 31.46150207519531 22.94549179077148 29.79612350463867 21.28011322021484 27.76121139526367 21.28011322021484 C 25.72632217407227 21.28011322021484 24.06093215942383 22.94549179077148 24.06093215942383 24.98040390014648 C 24.06093215942383 25.99782180786133 23.22824096679688 26.83050155639648 22.21082305908203 26.83050155639648 C 21.19340133666992 26.83050155639648 20.36071395874023 25.99781036376953 20.36071395874023 24.98040390014648 L 20.36110305786133 24.98040390014648 C 20.36110305786133 20.88981246948242 23.67369079589844 17.58009338378906 27.76141357421875 17.58009338378906 Z M 46.26516342163086 17.58009338378906 C 50.35575103759766 17.58009338378906 53.66546249389648 20.89267349243164 53.66546249389648 24.98040390014648 C 53.66546249389648 25.99782180786133 52.83277130126953 26.83050155639648 51.81537246704102 26.83050155639648 C 50.79795074462891 26.83050155639648 49.96525192260742 25.99781036376953 49.96525192260742 24.98040390014648 C 49.96525192260742 22.94549179077148 48.29987335205078 21.28011322021484 46.26497268676758 21.28011322021484 C 44.23007202148438 21.28011322021484 42.56468200683594 22.94549179077148 42.56468200683594 24.98040390014648 C 42.56468200683594 25.99782180786133 41.73199081420898 26.83050155639648 40.71458435058594 26.83050155639648 C 39.69716262817383 26.83050155639648 38.86447143554688 25.99781036376953 38.86447143554688 24.98040390014648 L 38.86486434936523 24.98040390014648 C 38.86486434936523 20.88981246948242 42.17744445800781 17.58009338378906 46.26516342163086 17.58009338378906 Z M 20.33206176757812 32.38096237182617 L 20.38671112060547 32.38096237182617 C 20.48039245605469 32.38096237182617 20.55324172973633 32.43561172485352 20.64693069458008 32.43561172485352 C 20.77443313598633 32.45382308959961 20.904541015625 32.45382308959961 21.03465270996094 32.50847244262695 C 21.16475296020508 32.5631103515625 21.27404403686523 32.63857269287109 21.38594436645508 32.71144104003906 C 21.45880126953125 32.74787139892578 21.53425216674805 32.78690338134766 21.60712432861328 32.8415412902832 C 31.98713302612305 42.0557975769043 42.0733642578125 42.05579376220703 52.45337295532227 32.8415412902832 C 52.52622985839844 32.7843017578125 52.60169982910156 32.76608276367188 52.674560546875 32.71144104003906 C 52.78644180297852 32.63857269287109 52.89574432373047 32.5631103515625 53.02585220336914 32.50847244262695 C 53.15336227416992 32.47204208374023 53.30169296264648 32.45382308959961 53.43179321289062 32.43561172485352 C 53.50466156005859 32.41739273071289 53.57752990722656 32.38096237182617 53.67119216918945 32.38096237182617 L 53.72584533691406 32.38096237182617 C 53.85334014892578 32.40177154541016 54.00166320800781 32.43820190429688 54.13177490234375 32.47463226318359 L 54.18049240112305 32.43561172485352 C 54.29238128662109 32.45382308959961 54.38347244262695 32.47204208374023 54.47713470458984 32.50847244262695 C 54.55000305175781 32.54490280151367 54.62286376953125 32.620361328125 54.71654510498047 32.67500305175781 C 54.82843017578125 32.76868057250977 54.95594024658203 32.82332229614258 55.04961395263672 32.93522262573242 C 55.04961395263672 32.97165298461914 55.08604431152344 32.97165298461914 55.08604431152344 32.97165298461914 C 55.14329528808594 33.04451370239258 55.16151428222656 33.11997222900391 55.21615219116211 33.19283294677734 C 55.28901290893555 33.30472183227539 55.36448287963867 33.41402053833008 55.41913223266602 33.54413223266602 C 55.45556259155273 33.671630859375 55.47377014160156 33.80174255371094 55.49199295043945 33.93185043334961 C 55.51020050048828 34.02553176879883 55.5466423034668 34.11660385131836 55.5466423034668 34.21028137207031 L 55.5466423034668 34.32217025756836 C 55.47403335571289 46.97910308837891 44.55510330200195 55.49056243896484 37.65442276000977 57.87672424316406 C 37.24064254760742 58.02860260009766 36.83480072021484 58.02150726318359 36.43139266967773 57.87672424316406 C 29.53071212768555 55.49056243896484 18.61203384399414 46.97910308837891 18.5391731262207 34.32217025756836 L 18.5391731262207 34.21028137207031 C 18.5391731262207 34.11660385131836 18.59381103515625 34.04374313354492 18.59381103515625 33.9500617980957 C 18.61203384399414 33.82256317138672 18.61203384399414 33.69245147705078 18.66668319702148 33.56234359741211 C 18.72132110595703 33.43224334716797 18.79678344726562 33.32295227050781 18.86965179443359 33.21105194091797 C 18.90608215332031 33.13819122314453 18.94511413574219 33.0627326965332 18.99975204467773 32.98987197875977 C 18.99975204467773 32.95344161987305 19.03618240356445 32.95344161987305 19.03618240356445 32.95344161987305 C 19.12986373901367 32.841552734375 19.25737380981445 32.76608276367188 19.3692626953125 32.69322204589844 C 19.46293258666992 32.63857269287109 19.53580093383789 32.5631217956543 19.62948226928711 32.52669143676758 C 19.72315216064453 32.49025344848633 19.83245086669922 32.47204208374023 19.92612075805664 32.45382308959961 C 20.05363082885742 32.43561172485352 20.20195388793945 32.38096237182617 20.33206176757812 32.38096237182617 Z M 37.01495361328125 43.52041244506836 C 32.25861358642578 43.52041244506836 27.48602294921875 41.81858062744141 22.72928237915039 38.45137023925781 C 24.67312240600586 46.61176300048828 31.88870239257812 52.20146179199219 37.01495361328125 54.19993209838867 C 42.1410026550293 52.18015289306641 49.35678100585938 46.61176300048828 51.30062103271484 38.45137023925781 C 46.56227111816406 41.81858062744141 41.77129364013672 43.52041244506836 37.01495361328125 43.52041244506836 Z" stroke="none" fill="#fff"/>
  </g>
</svg>
