<svg id="Group_150811" data-name="Group 150811" xmlns="http://www.w3.org/2000/svg" width="65" height="64" viewBox="0 0 65 64">
  <rect id="Rectangle_24363" data-name="Rectangle 24363" width="65" height="64" fill="none"/>
  <g id="Group_150813" data-name="Group 150813" transform="translate(3.302 3.158)">
    <path id="Path_220158" data-name="Path 220158" d="M62.117,73.129,41.846,34.617l1.842-.968L63.957,72.161Zm-18.77.036L28.336,47.144l1.8-1.041L45.151,72.124Z" transform="translate(-13.624 -15.397)" fill-rule="evenodd"/>
    <path id="Path_220159" data-name="Path 220159" d="M35.394,32.812a1.04,1.04,0,0,1,.921.557l6.433,12.22,3.177-5.98a1.039,1.039,0,0,1,1.842.013L64.421,71.889a1.038,1.038,0,0,1-.924,1.517H7.291a1.041,1.041,0,0,1-.908-1.548L20.955,45.837a1.039,1.039,0,0,1,1.809-.013l2.7,4.671L34.473,33.37a1.04,1.04,0,0,1,.921-.557Zm0,3.276L26.422,53.135a1.041,1.041,0,0,1-1.822.034l-2.724-4.72L9.066,71.324H61.789L46.831,42.341l-3.167,5.964a1.043,1.043,0,0,1-1.842-.005Z" transform="translate(-6.25 -15.117)" fill-rule="evenodd"/>
    <path id="Path_220160" data-name="Path 220160" d="M45.128,57.922a1.047,1.047,0,0,1,.932,0l3.7,1.85,3.7-1.85.932,1.863-4.163,2.082a1.047,1.047,0,0,1-.932,0l-3.7-1.85-3.7,1.85a1.047,1.047,0,0,1-.932,0L36.8,59.785l.932-1.863,3.7,1.85Z" transform="translate(-16.449 -23.464)" fill-rule="evenodd"/>
    <path id="Path_220161" data-name="Path 220161" d="M24.922,71.984a1.047,1.047,0,0,1,.932,0l3.82,1.91,3.789-.947.5,2.019L29.8,76.007a1.054,1.054,0,0,1-.718-.078l-3.7-1.85-3.7,1.85a1.053,1.053,0,0,1-.718.078l-4.163-1.041.5-2.019,3.791.947Z" transform="translate(-9.775 -28.159)" fill-rule="evenodd"/>
    <path id="Path_220162" data-name="Path 220162" d="M72.717,59.78l-5.2,4.163-1.3-1.624,5.2-4.163Z" transform="translate(-26.268 -23.579)" fill-rule="evenodd"/>
    <path id="Path_220163" data-name="Path 220163" d="M49.731,6.281a1.042,1.042,0,0,0-1.293,1.01V24.985h2.082V19.032l.788.2a9.639,9.639,0,0,0,4.668,0,7.567,7.567,0,0,1,3.659,0l6.245,1.561a1.04,1.04,0,0,0,1.064-1.66L63.3,14.577l3.643-4.554a1.04,1.04,0,0,0-.559-1.66L60.14,6.8a9.639,9.639,0,0,0-4.668,0,7.567,7.567,0,0,1-3.659,0Z" transform="translate(-20.334 -6.25)" fill-rule="evenodd"/>
  </g>
</svg>
