<svg xmlns="http://www.w3.org/2000/svg" width="25" height="25" viewBox="0 0 25 25">
  <g id="Group_150795" data-name="Group 150795" transform="translate(-1003.5 -2599.5)">
    <path id="Path_220152" data-name="Path 220152" d="M24.333,5.667V24.333H5.667V5.667H24.333m0-2.667H5.667A2.675,2.675,0,0,0,3,5.667V24.333A2.675,2.675,0,0,0,5.667,27H24.333A2.675,2.675,0,0,0,27,24.333V5.667A2.675,2.675,0,0,0,24.333,3Z" transform="translate(1001 2597)" fill="rgba(0,0,0,0.48)" stroke="#fff" stroke-width="1"/>
    <path id="Path_220153" data-name="Path 220153" d="M0,0H24V24H0Z" transform="translate(1004 2600)" fill="none"/>
    <path id="Path_102951" data-name="Path 102951" d="M1063.648,1252.947a.651.651,0,0,1,.918,0l3.459,3.471h0a1.3,1.3,0,0,1,0,1.836h0l-3.489,3.478a.651.651,0,0,1-.918-.918l3.2-3.192a.4.4,0,0,0,0-.571l-3.174-3.193A.65.65,0,0,1,1063.648,1252.947Z" transform="translate(-51.934 1354.677)" fill="#858585"/>
    <path id="Path_102951-2" data-name="Path 102951" d="M1063.648,1252.947a.651.651,0,0,1,.918,0l3.459,3.471h0a1.3,1.3,0,0,1,0,1.836h0l-3.489,3.478a.651.651,0,0,1-.918-.918l3.2-3.192a.4.4,0,0,0,0-.571l-3.174-3.193A.65.65,0,0,1,1063.648,1252.947Z" transform="translate(-46.99 1354.677)" fill="#858585"/>
  </g>
</svg>
