<svg id="Group_150812" data-name="Group 150812" xmlns="http://www.w3.org/2000/svg" width="64" height="64" viewBox="0 0 64 64">
  <rect id="Rectangle_24363" data-name="Rectangle 24363" width="64" height="64" fill="none"/>
  <path id="Path_220169" data-name="Path 220169" d="M22.272,33.78h5.55v-3.6a13.28,13.28,0,0,1,2.417-7.64,13.524,13.524,0,0,1,4.478-4.049A8.684,8.684,0,0,1,35.044,6.54l.008-.008a8.688,8.688,0,0,1,12.3,0l.008.008a8.684,8.684,0,0,1,.323,11.949,13.524,13.524,0,0,1,4.478,4.049,13.285,13.285,0,0,1,2.417,7.64v3.6h5.55a2.874,2.874,0,0,1,2.86,2.862v3.271a2.854,2.854,0,0,1-.84,2.022l-.1.086a2.858,2.858,0,0,1-1.926.755h-.265L54.25,62.344a5.287,5.287,0,0,1-1.257,2.3,3.2,3.2,0,0,1-2.334.981H31.728a3.2,3.2,0,0,1-2.334-.978,5.317,5.317,0,0,1-1.257-2.3l-5.6-19.568H22.27a2.879,2.879,0,0,1-2.862-2.862V36.642a2.854,2.854,0,0,1,.84-2.022l.094-.086a2.847,2.847,0,0,1,1.928-.755Zm14.46-3.534L35.5,31.479v2.3H51.906v-3.6a10.646,10.646,0,0,0-1.928-6.118,10.815,10.815,0,0,0-4.6-3.739,8.7,8.7,0,0,1-8.358,0,10.859,10.859,0,0,0-4.6,3.737,10.642,10.642,0,0,0-1.928,6.12v3.6h2.347V30.933a1.349,1.349,0,0,1,.39-.937l1.629-1.629a3.151,3.151,0,1,1,2.961,2.071,3.194,3.194,0,0,1-1.085-.193Zm1.436-3.315a.509.509,0,1,0,.141.351A.5.5,0,0,0,38.169,26.931ZM27.721,5.668H14.348a.755.755,0,0,0-.749.749v9.513a.748.748,0,0,0,.221.528l.036.039a.758.758,0,0,0,.492.182h6.17a1.32,1.32,0,0,1,.747.229L26.4,19.879A3.944,3.944,0,0,1,27.716,17.4a2.159,2.159,0,0,0,.757-1.395V6.415a.745.745,0,0,0-.216-.528.77.77,0,0,0-.533-.221ZM14.348,3H27.721A3.429,3.429,0,0,1,31.137,6.42v9.594A4.316,4.316,0,0,1,29.672,19.2c-.315.343-.617.677-.617.991v1.991a1.352,1.352,0,0,1-.182.666,1.33,1.33,0,0,1-1.816.484l-6.888-3.984H14.351a3.4,3.4,0,0,1-2.324-.921l-.088-.081a3.4,3.4,0,0,1-1-2.412V6.42a3.42,3.42,0,0,1,3.414-3.414ZM45.468,8.421a6.041,6.041,0,0,0-8.6,8.483l.062.057a6.04,6.04,0,0,0,8.54-8.543ZM57.089,42.778H25.306L30.7,61.617a2.71,2.71,0,0,0,.58,1.145.622.622,0,0,0,.45.2H50.661a.637.637,0,0,0,.45-.2,2.687,2.687,0,0,0,.58-1.142l5.4-18.84Zm3.034-6.328H22.272a.205.205,0,0,0-.114.034l-.023.023a.2.2,0,0,0-.057.138v3.271a.2.2,0,0,0,.057.138.182.182,0,0,0,.138.057H60.123a.2.2,0,0,0,.117-.036l.021-.021a.2.2,0,0,0,.057-.138V36.644a.2.2,0,0,0-.057-.138.186.186,0,0,0-.138-.057Z" transform="translate(-5.229 -2.01)" stroke="#fff" stroke-width="0.25"/>
</svg>
