<svg xmlns="http://www.w3.org/2000/svg" width="78" height="24" viewBox="0 0 78 24">
  <g id="Group_145830" data-name="Group 145830" transform="translate(-77 -6)">
    <g id="small" transform="translate(131 6)">
      <path id="Path_102951" data-name="Path 102951" d="M1063.648,1252.947a.651.651,0,0,1,.918,0l3.459,3.471h0a1.3,1.3,0,0,1,0,1.836h0l-3.489,3.478a.651.651,0,0,1-.918-.918l3.2-3.192a.4.4,0,0,0,0-.571l-3.174-3.193A.65.65,0,0,1,1063.648,1252.947Z" transform="translate(-1053.462 -1245.758)" fill="#e00046"/>
      <rect id="Rectangle_21663" data-name="Rectangle 21663" width="24" height="24" fill="none"/>
    </g>
    <text id="see_all" data-name="see all" transform="translate(77 23)" fill="#e00046" font-size="16" font-family="ProximaNova-Semibold, Proxima Nova" font-weight="600"><tspan x="0" y="0">See All</tspan></text>
  </g>
</svg>
