<svg id="Group_150811" data-name="Group 150811" xmlns="http://www.w3.org/2000/svg" width="65" height="64" viewBox="0 0 65 64">
  <rect id="Rectangle_24363" data-name="Rectangle 24363" width="65" height="64" fill="none"/>
  <g id="noun-team-7010502" transform="translate(1.874 0.469)">
    <g id="Group_150828" data-name="Group 150828" transform="translate(2.39 1.919)">
      <path id="Path_220170" data-name="Path 220170" d="M55.576,31.762a7.5,7.5,0,1,0-11.444-6.818c-.249,0-.5-.063-.687-.063a7.314,7.314,0,0,0-3.064.687v-.126a7.539,7.539,0,0,0-7.567-7.5,7.447,7.447,0,0,0-7.5,7.5v.063a7.492,7.492,0,0,0-2.938-.626,4.711,4.711,0,0,0-.938.063,7.4,7.4,0,0,0-7.5-7.067,7.54,7.54,0,0,0-3.94,13.947,9.317,9.317,0,0,0-5.441,8.443v5.067c0,2.938,4.252,4.191,8.443,4.377V52.4a3.244,3.244,0,0,0,1.94,2.875,16.059,16.059,0,0,0,7.442,1.5c2.875,0,5.753-.5,7.5-1.562A3.272,3.272,0,0,0,31.752,52.4V49.709c.438,0,.938.063,1.439.063h.875v2.689a3.244,3.244,0,0,0,1.94,2.875,16.059,16.059,0,0,0,7.442,1.5c2.875,0,5.753-.5,7.5-1.562a3.272,3.272,0,0,0,1.877-2.815V49.835c1.94-.126,5.628-.5,7.315-2.314a3.056,3.056,0,0,0,.875-2.063V40.391a9.455,9.455,0,0,0-5.444-8.629Zm-3.94-12.008a5.628,5.628,0,1,1,0,11.255,3.544,3.544,0,0,1-.813-.063,7.706,7.706,0,0,0-4.815-5.628,5.631,5.631,0,0,1,5.628-5.565ZM49.073,32.385a5.628,5.628,0,1,1-5.628-5.628,5.6,5.6,0,0,1,5.628,5.628ZM27.184,25.444a5.659,5.659,0,0,1,11.318,0,4.274,4.274,0,0,1-.189,1.376h.063a8.044,8.044,0,0,0-2.063,3.127,5.678,5.678,0,0,1-2.252,1H34a6.842,6.842,0,0,1-1.125.126,6.842,6.842,0,0,1-1.125-.126h-.063a5.589,5.589,0,0,1-2.314-1.064,6.826,6.826,0,0,0-2.126-3.127h.063c0-.438-.126-.938-.126-1.313ZM28,32.385a5.628,5.628,0,1,1-5.628-5.628A5.6,5.6,0,0,1,28,32.385ZM8.3,25.444a5.628,5.628,0,1,1,11.255-.063v.063a7.567,7.567,0,0,0-4.566,5.5,5.464,5.464,0,0,1-1.064.126,6.842,6.842,0,0,1-1.125-.126,5.634,5.634,0,0,1-4.5-5.5ZM12.99,47.331v.5c-3.753-.189-6.566-1.187-6.566-2.5V40.265a7.678,7.678,0,0,1,6.38-7.379,6.748,6.748,0,0,0,1.125.063,5.034,5.034,0,0,0,.938-.063A7.6,7.6,0,0,0,18.5,38.828a9.318,9.318,0,0,0-5.5,8.5ZM29.874,52.4c0,.438-.312.813-.938,1.187-2.875,1.688-10.068,1.688-13.009,0-.687-.375-1-.813-1-1.25V47.268a7.55,7.55,0,0,1,6.629-7.442v-.063a4.106,4.106,0,0,0,.875.063,3.824,3.824,0,0,0,.875-.063v.063a7.5,7.5,0,0,1,6.629,7.442l0,5.129Zm4.191-5.067v.5c-.75.063-1.562,0-2.314,0v-.5a9.325,9.325,0,0,0-5.5-8.505,7.255,7.255,0,0,0,3.5-5.253,8.269,8.269,0,0,1,2-.626,6.747,6.747,0,0,0,1.125.063c.375,0,.75-.063,1.187-.063A7.883,7.883,0,0,1,36,33.51a7.446,7.446,0,0,0,3.565,5.316,9.331,9.331,0,0,0-5.5,8.505ZM50.95,52.4c0,.438-.312.813-.938,1.187-2.875,1.688-10.068,1.688-13.009,0-.687-.375-1-.813-1-1.25V47.268a7.55,7.55,0,0,1,6.629-7.442v-.063a4.106,4.106,0,0,0,.875.063,3.824,3.824,0,0,0,.875-.063v.063a7.5,7.5,0,0,1,6.629,7.442l0,5.129Zm7.879-6.254c-.875.938-3.19,1.562-6,1.688v-.563a9.325,9.325,0,0,0-5.5-8.505,7.594,7.594,0,0,0,3.628-5.942c.249,0,.5.063.687.063a4.711,4.711,0,0,0,.938-.063,7.512,7.512,0,0,1,6.566,7.5v5.067a.924.924,0,0,1-.312.752Z" transform="translate(-4.547 -7.996)"/>
      <path id="Path_220171" data-name="Path 220171" d="M49.118,87.477a.962.962,0,0,0-.938.938v4.377a.938.938,0,1,0,1.877,0V88.415A.962.962,0,0,0,49.118,87.477Z" transform="translate(-21.166 -34.507)"/>
      <path id="Path_220172" data-name="Path 220172" d="M74.753,85.83a.937.937,0,0,0-1.25-.438.888.888,0,0,0-.438,1.25l1.877,4a1.063,1.063,0,0,0,.875.563.788.788,0,0,0,.375-.063.888.888,0,0,0,.438-1.25Z" transform="translate(-30.603 -33.675)"/>
      <path id="Path_220173" data-name="Path 220173" d="M23.57,85.294a.937.937,0,0,0-1.25.438l-1.877,4a.937.937,0,0,0,.438,1.25.788.788,0,0,0,.375.063.946.946,0,0,0,.875-.563l1.877-4a.85.85,0,0,0-.438-1.187Z" transform="translate(-10.564 -33.638)"/>
      <path id="Path_220174" data-name="Path 220174" d="M49.118,8.172a.962.962,0,0,0,.938-.938V2.857a.938.938,0,1,0-1.877,0V7.234A.965.965,0,0,0,49.118,8.172Z" transform="translate(-21.166 -1.919)"/>
      <path id="Path_220175" data-name="Path 220175" d="M22.32,10.117a1.063,1.063,0,0,0,.875.563.788.788,0,0,0,.375-.063.956.956,0,0,0,.438-1.25l-1.877-3.94a.937.937,0,0,0-1.688.813Z" transform="translate(-10.564 -3.051)"/>
      <path id="Path_220176" data-name="Path 220176" d="M73.5,10.579a.788.788,0,0,0,.375.063.946.946,0,0,0,.875-.563l1.877-3.94a.937.937,0,0,0-1.688-.813l-1.877,3.94a.954.954,0,0,0,.438,1.313Z" transform="translate(-30.602 -3.012)"/>
    </g>
  </g>
</svg>
