<svg id="Location" xmlns="http://www.w3.org/2000/svg" width="24" height="24" viewBox="0 0 24 24">
  <rect id="Rectangle_24354" data-name="Rectangle 24354" width="24" height="24" fill="#fff"/>
  <g id="Iconly_Light-Outline_Location" data-name="Iconly/Light-Outline/Location" transform="translate(1.399 2.198)" opacity="0.6">
    <g id="Location-2" data-name="Location" transform="translate(4 2)">
      <path id="Combined-Shape" d="M6.6,1a6.634,6.634,0,0,1,6.6,6.652c0,4.509-5.166,8.952-6.6,8.952S0,12.161,0,7.652A6.634,6.634,0,0,1,6.6,1Zm0,1.2A5.433,5.433,0,0,0,1.2,7.652c0,3.824,4.5,7.55,5.4,7.748.9-.2,5.4-3.925,5.4-7.748A5.433,5.433,0,0,0,6.6,2.2ZM6.6,5A2.6,2.6,0,1,1,4,7.6,2.6,2.6,0,0,1,6.6,5Zm0,1.2A1.4,1.4,0,1,0,8,7.6,1.4,1.4,0,0,0,6.6,6.2Z" transform="translate(0.001 -1)" fill-rule="evenodd"/>
    </g>
  </g>
</svg>
