<svg xmlns="http://www.w3.org/2000/svg" width="13.665" height="1.825" viewBox="0 0 13.665 1.825">
  <path id="Path_220154" data-name="Path 220154" d="M-5.934-1.75a.949.949,0,0,1,.718.263.914.914,0,0,1,.253.66.882.882,0,0,1-.253.646.963.963,0,0,1-.718.256.966.966,0,0,1-.7-.253A.867.867,0,0,1-6.9-.827a.914.914,0,0,1,.253-.66A.94.94,0,0,1-5.934-1.75Zm3.91,0a.949.949,0,0,1,.718.263.914.914,0,0,1,.253.66.882.882,0,0,1-.253.646.963.963,0,0,1-.718.256.966.966,0,0,1-.7-.253.867.867,0,0,1-.26-.649.914.914,0,0,1,.253-.66A.94.94,0,0,1-2.023-1.75Zm3.91,0a.949.949,0,0,1,.718.263.914.914,0,0,1,.253.66A.882.882,0,0,1,2.6-.181a.963.963,0,0,1-.718.256.966.966,0,0,1-.7-.253.867.867,0,0,1-.26-.649.914.914,0,0,1,.253-.66A.94.94,0,0,1,1.887-1.75Zm3.91,0a.949.949,0,0,1,.718.263.914.914,0,0,1,.253.66.882.882,0,0,1-.253.646A.963.963,0,0,1,5.8.075a.966.966,0,0,1-.7-.253.867.867,0,0,1-.26-.649.914.914,0,0,1,.253-.66A.94.94,0,0,1,5.8-1.75Z" transform="translate(6.897 1.75)" fill="#858585"/>
</svg>
